<?xml version="1.0" standalone="no"?>
<!DOCTYPE svg PUBLIC "-//W3C//DTD SVG 20010904//EN"
 "http://www.w3.org/TR/2001/REC-SVG-20010904/DTD/svg10.dtd">
<svg version="1.0" xmlns="http://www.w3.org/2000/svg"
 width="462.000000pt" height="398.000000pt" viewBox="0 0 462.000000 398.000000"
 preserveAspectRatio="xMidYMid meet">

<g transform="translate(0.000000,398.000000) scale(0.100000,-0.100000)"
fill="#000000" stroke="none">
<path d="M2182 2915 c-73 -21 -107 -40 -165 -94 -54 -50 -107 -146 -107 -196
-1 -26 -3 -22 -19 22 -59 171 -225 268 -398 233 -77 -16 -126 -42 -178 -95
-190 -190 -99 -518 162 -585 27 -7 -3 -8 -104 -4 l-143 5 0 -430 0 -431 190 0
190 0 0 -35 c0 -25 6 -37 23 -46 12 -6 23 -13 25 -14 2 -2 -49 -92 -113 -200
-111 -187 -129 -231 -89 -223 9 2 71 95 138 208 l122 205 117 3 118 3 -5 -48
c-3 -26 -8 -144 -11 -261 -6 -190 -4 -213 10 -218 9 -4 20 -3 25 2 5 5 12 106
15 224 3 118 8 234 11 258 l5 42 102 0 102 -1 96 -202 c92 -194 119 -234 135
-194 3 8 -36 101 -86 207 -50 105 -90 193 -88 193 35 18 43 28 46 61 l3 36
240 0 239 0 0 110 c0 81 3 110 13 110 6 0 103 -25 215 -54 137 -36 207 -60
216 -71 8 -12 19 -16 31 -11 16 6 17 28 10 364 -4 196 -11 361 -16 366 -5 6
-97 -25 -231 -77 -123 -48 -226 -87 -230 -87 -5 0 -8 47 -8 105 l0 105 -207 1
c-115 0 -197 4 -183 8 93 29 177 104 224 201 27 57 31 75 31 150 -1 72 -5 95
-29 148 -74 162 -273 255 -444 207z m169 -242 c59 -50 73 -116 40 -190 -45
-98 -163 -96 -211 2 -31 64 -23 124 23 174 45 48 101 53 148 14z m-746 -47
c45 -45 45 -107 0 -152 -13 -13 -36 -24 -50 -24 -31 0 -72 38 -81 74 -14 57
31 126 81 126 14 0 37 -11 50 -24z m343 -242 c37 -71 133 -151 212 -175 14 -4
-94 -8 -240 -8 l-265 -1 52 24 c93 44 191 168 194 246 0 22 2 21 14 -11 7 -19
22 -53 33 -75z m792 -614 l0 -380 -218 0 c-161 0 -221 3 -230 13 -10 9 -90 12
-332 12 -242 0 -322 -3 -331 -12 -10 -10 -60 -13 -181 -13 l-168 0 0 380 0
380 730 0 730 0 0 -380z"/>
<path d="M2093 1565 c-3 -9 -1 -21 4 -26 5 -5 84 -8 189 -7 171 3 179 4 179
23 0 19 -8 20 -183 23 -159 2 -183 0 -189 -13z"/>
</g>
</svg>
